<!DOCTYPE svg>
<svg style="border: 1px solid black; margin-top: 0px; width: 600px; height: 600px;" id="canvas">
					<g stroke="green" fill="white" id="mainGroup">
					</g>
				<g layerId="2"><g transform-origin="185.41065369616138 480" transform=" translate(114,-180) rotate(0)"><polygon points="168.66749588966223,451 177.0390747929118,436.5 193.78223259941095,436.5 202.15381150266052,451 193.78223259941095,465.5 185.41065369616138,465.5 177.0390747929118,465.5" style="fill:rgb(171, 37, 103);stroke:rgb(0, 0, 0);stroke-width:0"></polygon><polygon points="202.15381150266052,451 193.78223259941095,436.5 177.0390747929118,436.5 168.66749588966223,451 177.0390747929118,465.5 185.41065369616138,465.5 193.78223259941095,465.5" style="fill:rgb(171, 37, 103);stroke:rgb(0, 0, 0);stroke-width:0"></polygon></g><g transform-origin="185.41065369616138 480" transform=" translate(114,-180) rotate(60)"><polygon points="168.66749588966223,451 177.0390747929118,436.5 193.78223259941095,436.5 202.15381150266052,451 193.78223259941095,465.5 185.41065369616138,465.5 177.0390747929118,465.5" style="fill:rgb(171, 37, 103);stroke:rgb(0, 0, 0);stroke-width:0"></polygon><polygon points="202.15381150266052,451 193.78223259941095,436.5 177.0390747929118,436.5 168.66749588966223,451 177.0390747929118,465.5 185.41065369616138,465.5 193.78223259941095,465.5" style="fill:rgb(171, 37, 103);stroke:rgb(0, 0, 0);stroke-width:0"></polygon></g><g transform-origin="185.41065369616138 480" transform=" translate(114,-180) rotate(120)"><polygon points="168.66749588966223,451 177.0390747929118,436.5 193.78223259941095,436.5 202.15381150266052,451 193.78223259941095,465.5 185.41065369616138,465.5 177.0390747929118,465.5" style="fill:rgb(171, 37, 103);stroke:rgb(0, 0, 0);stroke-width:0"></polygon><polygon points="202.15381150266052,451 193.78223259941095,436.5 177.0390747929118,436.5 168.66749588966223,451 177.0390747929118,465.5 185.41065369616138,465.5 193.78223259941095,465.5" style="fill:rgb(171, 37, 103);stroke:rgb(0, 0, 0);stroke-width:0"></polygon></g><g transform-origin="185.41065369616138 480" transform=" translate(114,-180) rotate(180)"><polygon points="168.66749588966223,451 177.0390747929118,436.5 193.78223259941095,436.5 202.15381150266052,451 193.78223259941095,465.5 185.41065369616138,465.5 177.0390747929118,465.5" style="fill:rgb(171, 37, 103);stroke:rgb(0, 0, 0);stroke-width:0"></polygon><polygon points="202.15381150266052,451 193.78223259941095,436.5 177.0390747929118,436.5 168.66749588966223,451 177.0390747929118,465.5 185.41065369616138,465.5 193.78223259941095,465.5" style="fill:rgb(171, 37, 103);stroke:rgb(0, 0, 0);stroke-width:0"></polygon></g><g transform-origin="185.41065369616138 480" transform=" translate(114,-180) rotate(240)"><polygon points="168.66749588966223,451 177.0390747929118,436.5 193.78223259941095,436.5 202.15381150266052,451 193.78223259941095,465.5 185.41065369616138,465.5 177.0390747929118,465.5" style="fill:rgb(171, 37, 103);stroke:rgb(0, 0, 0);stroke-width:0"></polygon><polygon points="202.15381150266052,451 193.78223259941095,436.5 177.0390747929118,436.5 168.66749588966223,451 177.0390747929118,465.5 185.41065369616138,465.5 193.78223259941095,465.5" style="fill:rgb(171, 37, 103);stroke:rgb(0, 0, 0);stroke-width:0"></polygon></g><g transform-origin="185.41065369616138 480" transform=" translate(114,-180) rotate(300)"><polygon points="168.66749588966223,451 177.0390747929118,436.5 193.78223259941095,436.5 202.15381150266052,451 193.78223259941095,465.5 185.41065369616138,465.5 177.0390747929118,465.5" style="fill:rgb(171, 37, 103);stroke:rgb(0, 0, 0);stroke-width:0"></polygon><polygon points="202.15381150266052,451 193.78223259941095,436.5 177.0390747929118,436.5 168.66749588966223,451 177.0390747929118,465.5 185.41065369616138,465.5 193.78223259941095,465.5" style="fill:rgb(171, 37, 103);stroke:rgb(0, 0, 0);stroke-width:0"></polygon></g></g><g layerId="3"><g transform-origin="185.41065369616138 480" transform=" translate(114,-180) rotate(0)"><polygon points="160.29591698641266,436.5 168.66749588966223,422 160.29591698641266,407.5 143.5527591799135,407.5" style="fill:rgb(171, 37, 103);stroke:rgb(0, 0, 0);stroke-width:0"></polygon><polygon points="210.5253904059101,436.5 202.15381150266052,422 210.5253904059101,407.5 227.26854821240926,407.5" style="fill:rgb(171, 37, 103);stroke:rgb(0, 0, 0);stroke-width:0"></polygon></g><g transform-origin="185.41065369616138 480" transform=" translate(114,-180) rotate(60)"><polygon points="160.29591698641266,436.5 168.66749588966223,422 160.29591698641266,407.5 143.5527591799135,407.5" style="fill:rgb(171, 37, 103);stroke:rgb(0, 0, 0);stroke-width:0"></polygon><polygon points="210.5253904059101,436.5 202.15381150266052,422 210.5253904059101,407.5 227.26854821240926,407.5" style="fill:rgb(171, 37, 103);stroke:rgb(0, 0, 0);stroke-width:0"></polygon></g><g transform-origin="185.41065369616138 480" transform=" translate(114,-180) rotate(120)"><polygon points="160.29591698641266,436.5 168.66749588966223,422 160.29591698641266,407.5 143.5527591799135,407.5" style="fill:rgb(171, 37, 103);stroke:rgb(0, 0, 0);stroke-width:0"></polygon><polygon points="210.5253904059101,436.5 202.15381150266052,422 210.5253904059101,407.5 227.26854821240926,407.5" style="fill:rgb(171, 37, 103);stroke:rgb(0, 0, 0);stroke-width:0"></polygon></g><g transform-origin="185.41065369616138 480" transform=" translate(114,-180) rotate(180)"><polygon points="160.29591698641266,436.5 168.66749588966223,422 160.29591698641266,407.5 143.5527591799135,407.5" style="fill:rgb(171, 37, 103);stroke:rgb(0, 0, 0);stroke-width:0"></polygon><polygon points="210.5253904059101,436.5 202.15381150266052,422 210.5253904059101,407.5 227.26854821240926,407.5" style="fill:rgb(171, 37, 103);stroke:rgb(0, 0, 0);stroke-width:0"></polygon></g><g transform-origin="185.41065369616138 480" transform=" translate(114,-180) rotate(240)"><polygon points="160.29591698641266,436.5 168.66749588966223,422 160.29591698641266,407.5 143.5527591799135,407.5" style="fill:rgb(171, 37, 103);stroke:rgb(0, 0, 0);stroke-width:0"></polygon><polygon points="210.5253904059101,436.5 202.15381150266052,422 210.5253904059101,407.5 227.26854821240926,407.5" style="fill:rgb(171, 37, 103);stroke:rgb(0, 0, 0);stroke-width:0"></polygon></g><g transform-origin="185.41065369616138 480" transform=" translate(114,-180) rotate(300)"><polygon points="160.29591698641266,436.5 168.66749588966223,422 160.29591698641266,407.5 143.5527591799135,407.5" style="fill:rgb(171, 37, 103);stroke:rgb(0, 0, 0);stroke-width:0"></polygon><polygon points="210.5253904059101,436.5 202.15381150266052,422 210.5253904059101,407.5 227.26854821240926,407.5" style="fill:rgb(171, 37, 103);stroke:rgb(0, 0, 0);stroke-width:0"></polygon></g></g><g layerId="4"><g transform-origin="185.41065369616138 480" transform=" translate(114,-180) rotate(0)"><polygon points="168.66749588966223,393 202.15381150266052,393 218.89696930915966,364 202.15381150266052,335 168.66749588966223,335 151.9243380831631,364" style="fill:rgb(171, 37, 103);stroke:rgb(0, 0, 0);stroke-width:0"></polygon><polygon points="202.15381150266052,393 168.66749588966223,393 151.9243380831631,364 168.66749588966223,335 202.15381150266052,335 218.89696930915966,364" style="fill:rgb(171, 37, 103);stroke:rgb(0, 0, 0);stroke-width:0"></polygon></g><g transform-origin="185.41065369616138 480" transform=" translate(114,-180) rotate(60)"><polygon points="168.66749588966223,393 202.15381150266052,393 218.89696930915966,364 202.15381150266052,335 168.66749588966223,335 151.9243380831631,364" style="fill:rgb(171, 37, 103);stroke:rgb(0, 0, 0);stroke-width:0"></polygon><polygon points="202.15381150266052,393 168.66749588966223,393 151.9243380831631,364 168.66749588966223,335 202.15381150266052,335 218.89696930915966,364" style="fill:rgb(171, 37, 103);stroke:rgb(0, 0, 0);stroke-width:0"></polygon></g><g transform-origin="185.41065369616138 480" transform=" translate(114,-180) rotate(120)"><polygon points="168.66749588966223,393 202.15381150266052,393 218.89696930915966,364 202.15381150266052,335 168.66749588966223,335 151.9243380831631,364" style="fill:rgb(171, 37, 103);stroke:rgb(0, 0, 0);stroke-width:0"></polygon><polygon points="202.15381150266052,393 168.66749588966223,393 151.9243380831631,364 168.66749588966223,335 202.15381150266052,335 218.89696930915966,364" style="fill:rgb(171, 37, 103);stroke:rgb(0, 0, 0);stroke-width:0"></polygon></g><g transform-origin="185.41065369616138 480" transform=" translate(114,-180) rotate(180)"><polygon points="168.66749588966223,393 202.15381150266052,393 218.89696930915966,364 202.15381150266052,335 168.66749588966223,335 151.9243380831631,364" style="fill:rgb(171, 37, 103);stroke:rgb(0, 0, 0);stroke-width:0"></polygon><polygon points="202.15381150266052,393 168.66749588966223,393 151.9243380831631,364 168.66749588966223,335 202.15381150266052,335 218.89696930915966,364" style="fill:rgb(171, 37, 103);stroke:rgb(0, 0, 0);stroke-width:0"></polygon></g><g transform-origin="185.41065369616138 480" transform=" translate(114,-180) rotate(240)"><polygon points="168.66749588966223,393 202.15381150266052,393 218.89696930915966,364 202.15381150266052,335 168.66749588966223,335 151.9243380831631,364" style="fill:rgb(171, 37, 103);stroke:rgb(0, 0, 0);stroke-width:0"></polygon><polygon points="202.15381150266052,393 168.66749588966223,393 151.9243380831631,364 168.66749588966223,335 202.15381150266052,335 218.89696930915966,364" style="fill:rgb(171, 37, 103);stroke:rgb(0, 0, 0);stroke-width:0"></polygon></g><g transform-origin="185.41065369616138 480" transform=" translate(114,-180) rotate(300)"><polygon points="168.66749588966223,393 202.15381150266052,393 218.89696930915966,364 202.15381150266052,335 168.66749588966223,335 151.9243380831631,364" style="fill:rgb(171, 37, 103);stroke:rgb(0, 0, 0);stroke-width:0"></polygon><polygon points="202.15381150266052,393 168.66749588966223,393 151.9243380831631,364 168.66749588966223,335 202.15381150266052,335 218.89696930915966,364" style="fill:rgb(171, 37, 103);stroke:rgb(0, 0, 0);stroke-width:0"></polygon></g></g><g layerId="5"><g transform-origin="185.41065369616138 480" transform=" translate(114,-180) rotate(0)"><polygon points="177.0390747929118,320.5 193.78223259941095,320.5 185.41065369616138,306" style="fill:rgb(171, 37, 103);stroke:rgb(0, 0, 0);stroke-width:0"></polygon><polygon points="193.78223259941095,320.5 177.0390747929118,320.5 185.41065369616138,306" style="fill:rgb(171, 37, 103);stroke:rgb(0, 0, 0);stroke-width:0"></polygon></g><g transform-origin="185.41065369616138 480" transform=" translate(114,-180) rotate(60)"><polygon points="177.0390747929118,320.5 193.78223259941095,320.5 185.41065369616138,306" style="fill:rgb(171, 37, 103);stroke:rgb(0, 0, 0);stroke-width:0"></polygon><polygon points="193.78223259941095,320.5 177.0390747929118,320.5 185.41065369616138,306" style="fill:rgb(171, 37, 103);stroke:rgb(0, 0, 0);stroke-width:0"></polygon></g><g transform-origin="185.41065369616138 480" transform=" translate(114,-180) rotate(120)"><polygon points="177.0390747929118,320.5 193.78223259941095,320.5 185.41065369616138,306" style="fill:rgb(171, 37, 103);stroke:rgb(0, 0, 0);stroke-width:0"></polygon><polygon points="193.78223259941095,320.5 177.0390747929118,320.5 185.41065369616138,306" style="fill:rgb(171, 37, 103);stroke:rgb(0, 0, 0);stroke-width:0"></polygon></g><g transform-origin="185.41065369616138 480" transform=" translate(114,-180) rotate(180)"><polygon points="177.0390747929118,320.5 193.78223259941095,320.5 185.41065369616138,306" style="fill:rgb(171, 37, 103);stroke:rgb(0, 0, 0);stroke-width:0"></polygon><polygon points="193.78223259941095,320.5 177.0390747929118,320.5 185.41065369616138,306" style="fill:rgb(171, 37, 103);stroke:rgb(0, 0, 0);stroke-width:0"></polygon></g><g transform-origin="185.41065369616138 480" transform=" translate(114,-180) rotate(240)"><polygon points="177.0390747929118,320.5 193.78223259941095,320.5 185.41065369616138,306" style="fill:rgb(171, 37, 103);stroke:rgb(0, 0, 0);stroke-width:0"></polygon><polygon points="193.78223259941095,320.5 177.0390747929118,320.5 185.41065369616138,306" style="fill:rgb(171, 37, 103);stroke:rgb(0, 0, 0);stroke-width:0"></polygon></g><g transform-origin="185.41065369616138 480" transform=" translate(114,-180) rotate(300)"><polygon points="177.0390747929118,320.5 193.78223259941095,320.5 185.41065369616138,306" style="fill:rgb(171, 37, 103);stroke:rgb(0, 0, 0);stroke-width:0"></polygon><polygon points="193.78223259941095,320.5 177.0390747929118,320.5 185.41065369616138,306" style="fill:rgb(171, 37, 103);stroke:rgb(0, 0, 0);stroke-width:0"></polygon></g></g></svg>