<?xml version="1.0" standalone="no"?>
<svg xmlns:xlink="http://www.w3.org/1999/xlink" xmlns="http://www.w3.org/2000/svg" style="border: 1px solid black; margin-top: 0px; background-color: white; width: 600px; height: 600px;" id="canvas">
					<g stroke="green" fill="white" id="mainGroup">
					</g>
				<g layerId="1"><g transform-origin="185.41065369616138 480" transform=" translate(114,-180) rotate(0)"><polygon points="156.8318153712749,430.5 166.35809481290374,463.5" style="fill:rgb(171, 37, 103);stroke:rgb(0, 0, 0);stroke-width:0"/><polygon points="213.98949202104785,430.5 204.463212579419,463.5" style="fill:rgb(171, 37, 103);stroke:rgb(0, 0, 0);stroke-width:0"/><polygon points="166.35809481290374,447" style="fill:rgb(171, 37, 103);stroke:rgb(0, 0, 0);stroke-width:0"/><polygon points="204.463212579419,447" style="fill:rgb(171, 37, 103);stroke:rgb(0, 0, 0);stroke-width:0"/><polygon points="166.35809481290374,447" style="fill:rgb(171, 37, 103);stroke:rgb(0, 0, 0);stroke-width:0"/><polygon points="204.463212579419,447" style="fill:rgb(171, 37, 103);stroke:rgb(0, 0, 0);stroke-width:0"/><polygon points="185.41065369616138,447 156.8318153712749,430.5 185.41065369616138,414 204.46321257941904,430.5" style="fill:rgb(171, 37, 103);stroke:rgb(0, 0, 0);stroke-width:0"/><polygon points="185.41065369616138,447 213.98949202104785,430.5 185.41065369616138,414 166.35809481290372,430.5" style="fill:rgb(171, 37, 103);stroke:rgb(0, 0, 0);stroke-width:0"/></g><g transform-origin="185.41065369616138 480" transform=" translate(114,-180) rotate(60)"><polygon points="156.8318153712749,430.5 166.35809481290374,463.5" style="fill:rgb(171, 37, 103);stroke:rgb(0, 0, 0);stroke-width:0"/><polygon points="213.98949202104785,430.5 204.463212579419,463.5" style="fill:rgb(171, 37, 103);stroke:rgb(0, 0, 0);stroke-width:0"/><polygon points="166.35809481290374,447" style="fill:rgb(171, 37, 103);stroke:rgb(0, 0, 0);stroke-width:0"/><polygon points="204.463212579419,447" style="fill:rgb(171, 37, 103);stroke:rgb(0, 0, 0);stroke-width:0"/><polygon points="166.35809481290374,447" style="fill:rgb(171, 37, 103);stroke:rgb(0, 0, 0);stroke-width:0"/><polygon points="204.463212579419,447" style="fill:rgb(171, 37, 103);stroke:rgb(0, 0, 0);stroke-width:0"/><polygon points="185.41065369616138,447 156.8318153712749,430.5 185.41065369616138,414 204.46321257941904,430.5" style="fill:rgb(171, 37, 103);stroke:rgb(0, 0, 0);stroke-width:0"/><polygon points="185.41065369616138,447 213.98949202104785,430.5 185.41065369616138,414 166.35809481290372,430.5" style="fill:rgb(171, 37, 103);stroke:rgb(0, 0, 0);stroke-width:0"/></g><g transform-origin="185.41065369616138 480" transform=" translate(114,-180) rotate(120)"><polygon points="156.8318153712749,430.5 166.35809481290374,463.5" style="fill:rgb(171, 37, 103);stroke:rgb(0, 0, 0);stroke-width:0"/><polygon points="213.98949202104785,430.5 204.463212579419,463.5" style="fill:rgb(171, 37, 103);stroke:rgb(0, 0, 0);stroke-width:0"/><polygon points="166.35809481290374,447" style="fill:rgb(171, 37, 103);stroke:rgb(0, 0, 0);stroke-width:0"/><polygon points="204.463212579419,447" style="fill:rgb(171, 37, 103);stroke:rgb(0, 0, 0);stroke-width:0"/><polygon points="166.35809481290374,447" style="fill:rgb(171, 37, 103);stroke:rgb(0, 0, 0);stroke-width:0"/><polygon points="204.463212579419,447" style="fill:rgb(171, 37, 103);stroke:rgb(0, 0, 0);stroke-width:0"/><polygon points="185.41065369616138,447 156.8318153712749,430.5 185.41065369616138,414 204.46321257941904,430.5" style="fill:rgb(171, 37, 103);stroke:rgb(0, 0, 0);stroke-width:0"/><polygon points="185.41065369616138,447 213.98949202104785,430.5 185.41065369616138,414 166.35809481290372,430.5" style="fill:rgb(171, 37, 103);stroke:rgb(0, 0, 0);stroke-width:0"/></g><g transform-origin="185.41065369616138 480" transform=" translate(114,-180) rotate(180)"><polygon points="156.8318153712749,430.5 166.35809481290374,463.5" style="fill:rgb(171, 37, 103);stroke:rgb(0, 0, 0);stroke-width:0"/><polygon points="213.98949202104785,430.5 204.463212579419,463.5" style="fill:rgb(171, 37, 103);stroke:rgb(0, 0, 0);stroke-width:0"/><polygon points="166.35809481290374,447" style="fill:rgb(171, 37, 103);stroke:rgb(0, 0, 0);stroke-width:0"/><polygon points="204.463212579419,447" style="fill:rgb(171, 37, 103);stroke:rgb(0, 0, 0);stroke-width:0"/><polygon points="166.35809481290374,447" style="fill:rgb(171, 37, 103);stroke:rgb(0, 0, 0);stroke-width:0"/><polygon points="204.463212579419,447" style="fill:rgb(171, 37, 103);stroke:rgb(0, 0, 0);stroke-width:0"/><polygon points="185.41065369616138,447 156.8318153712749,430.5 185.41065369616138,414 204.46321257941904,430.5" style="fill:rgb(171, 37, 103);stroke:rgb(0, 0, 0);stroke-width:0"/><polygon points="185.41065369616138,447 213.98949202104785,430.5 185.41065369616138,414 166.35809481290372,430.5" style="fill:rgb(171, 37, 103);stroke:rgb(0, 0, 0);stroke-width:0"/></g><g transform-origin="185.41065369616138 480" transform=" translate(114,-180) rotate(240)"><polygon points="156.8318153712749,430.5 166.35809481290374,463.5" style="fill:rgb(171, 37, 103);stroke:rgb(0, 0, 0);stroke-width:0"/><polygon points="213.98949202104785,430.5 204.463212579419,463.5" style="fill:rgb(171, 37, 103);stroke:rgb(0, 0, 0);stroke-width:0"/><polygon points="166.35809481290374,447" style="fill:rgb(171, 37, 103);stroke:rgb(0, 0, 0);stroke-width:0"/><polygon points="204.463212579419,447" style="fill:rgb(171, 37, 103);stroke:rgb(0, 0, 0);stroke-width:0"/><polygon points="166.35809481290374,447" style="fill:rgb(171, 37, 103);stroke:rgb(0, 0, 0);stroke-width:0"/><polygon points="204.463212579419,447" style="fill:rgb(171, 37, 103);stroke:rgb(0, 0, 0);stroke-width:0"/><polygon points="185.41065369616138,447 156.8318153712749,430.5 185.41065369616138,414 204.46321257941904,430.5" style="fill:rgb(171, 37, 103);stroke:rgb(0, 0, 0);stroke-width:0"/><polygon points="185.41065369616138,447 213.98949202104785,430.5 185.41065369616138,414 166.35809481290372,430.5" style="fill:rgb(171, 37, 103);stroke:rgb(0, 0, 0);stroke-width:0"/></g><g transform-origin="185.41065369616138 480" transform=" translate(114,-180) rotate(300)"><polygon points="156.8318153712749,430.5 166.35809481290374,463.5" style="fill:rgb(171, 37, 103);stroke:rgb(0, 0, 0);stroke-width:0"/><polygon points="213.98949202104785,430.5 204.463212579419,463.5" style="fill:rgb(171, 37, 103);stroke:rgb(0, 0, 0);stroke-width:0"/><polygon points="166.35809481290374,447" style="fill:rgb(171, 37, 103);stroke:rgb(0, 0, 0);stroke-width:0"/><polygon points="204.463212579419,447" style="fill:rgb(171, 37, 103);stroke:rgb(0, 0, 0);stroke-width:0"/><polygon points="166.35809481290374,447" style="fill:rgb(171, 37, 103);stroke:rgb(0, 0, 0);stroke-width:0"/><polygon points="204.463212579419,447" style="fill:rgb(171, 37, 103);stroke:rgb(0, 0, 0);stroke-width:0"/><polygon points="185.41065369616138,447 156.8318153712749,430.5 185.41065369616138,414 204.46321257941904,430.5" style="fill:rgb(171, 37, 103);stroke:rgb(0, 0, 0);stroke-width:0"/><polygon points="185.41065369616138,447 213.98949202104785,430.5 185.41065369616138,414 166.35809481290372,430.5" style="fill:rgb(171, 37, 103);stroke:rgb(0, 0, 0);stroke-width:0"/></g></g><g layerId="2"><g transform-origin="185.41065369616138 480" transform=" translate(114,-180) rotate(0)"><polygon points="156.8318153712749,414" style="fill:rgb(171, 37, 103);stroke:rgb(0, 0, 0);stroke-width:0"/><polygon points="213.98949202104785,414" style="fill:rgb(171, 37, 103);stroke:rgb(0, 0, 0);stroke-width:0"/><polygon points="156.8318153712749,430.5 156.8318153712749,397.5 185.41065369616138,381 213.98949202104785,397.5 213.98949202104785,430.5 185.41065369616138,414" style="fill:rgb(171, 37, 103);stroke:rgb(0, 0, 0);stroke-width:0"/><polygon points="213.98949202104785,430.5 213.98949202104785,397.5 185.41065369616138,381 156.8318153712749,397.5 156.8318153712749,430.5 185.41065369616138,414" style="fill:rgb(171, 37, 103);stroke:rgb(0, 0, 0);stroke-width:0"/></g><g transform-origin="185.41065369616138 480" transform=" translate(114,-180) rotate(60)"><polygon points="156.8318153712749,414" style="fill:rgb(171, 37, 103);stroke:rgb(0, 0, 0);stroke-width:0"/><polygon points="213.98949202104785,414" style="fill:rgb(171, 37, 103);stroke:rgb(0, 0, 0);stroke-width:0"/><polygon points="156.8318153712749,430.5 156.8318153712749,397.5 185.41065369616138,381 213.98949202104785,397.5 213.98949202104785,430.5 185.41065369616138,414" style="fill:rgb(171, 37, 103);stroke:rgb(0, 0, 0);stroke-width:0"/><polygon points="213.98949202104785,430.5 213.98949202104785,397.5 185.41065369616138,381 156.8318153712749,397.5 156.8318153712749,430.5 185.41065369616138,414" style="fill:rgb(171, 37, 103);stroke:rgb(0, 0, 0);stroke-width:0"/></g><g transform-origin="185.41065369616138 480" transform=" translate(114,-180) rotate(120)"><polygon points="156.8318153712749,414" style="fill:rgb(171, 37, 103);stroke:rgb(0, 0, 0);stroke-width:0"/><polygon points="213.98949202104785,414" style="fill:rgb(171, 37, 103);stroke:rgb(0, 0, 0);stroke-width:0"/><polygon points="156.8318153712749,430.5 156.8318153712749,397.5 185.41065369616138,381 213.98949202104785,397.5 213.98949202104785,430.5 185.41065369616138,414" style="fill:rgb(171, 37, 103);stroke:rgb(0, 0, 0);stroke-width:0"/><polygon points="213.98949202104785,430.5 213.98949202104785,397.5 185.41065369616138,381 156.8318153712749,397.5 156.8318153712749,430.5 185.41065369616138,414" style="fill:rgb(171, 37, 103);stroke:rgb(0, 0, 0);stroke-width:0"/></g><g transform-origin="185.41065369616138 480" transform=" translate(114,-180) rotate(180)"><polygon points="156.8318153712749,414" style="fill:rgb(171, 37, 103);stroke:rgb(0, 0, 0);stroke-width:0"/><polygon points="213.98949202104785,414" style="fill:rgb(171, 37, 103);stroke:rgb(0, 0, 0);stroke-width:0"/><polygon points="156.8318153712749,430.5 156.8318153712749,397.5 185.41065369616138,381 213.98949202104785,397.5 213.98949202104785,430.5 185.41065369616138,414" style="fill:rgb(171, 37, 103);stroke:rgb(0, 0, 0);stroke-width:0"/><polygon points="213.98949202104785,430.5 213.98949202104785,397.5 185.41065369616138,381 156.8318153712749,397.5 156.8318153712749,430.5 185.41065369616138,414" style="fill:rgb(171, 37, 103);stroke:rgb(0, 0, 0);stroke-width:0"/></g><g transform-origin="185.41065369616138 480" transform=" translate(114,-180) rotate(240)"><polygon points="156.8318153712749,414" style="fill:rgb(171, 37, 103);stroke:rgb(0, 0, 0);stroke-width:0"/><polygon points="213.98949202104785,414" style="fill:rgb(171, 37, 103);stroke:rgb(0, 0, 0);stroke-width:0"/><polygon points="156.8318153712749,430.5 156.8318153712749,397.5 185.41065369616138,381 213.98949202104785,397.5 213.98949202104785,430.5 185.41065369616138,414" style="fill:rgb(171, 37, 103);stroke:rgb(0, 0, 0);stroke-width:0"/><polygon points="213.98949202104785,430.5 213.98949202104785,397.5 185.41065369616138,381 156.8318153712749,397.5 156.8318153712749,430.5 185.41065369616138,414" style="fill:rgb(171, 37, 103);stroke:rgb(0, 0, 0);stroke-width:0"/></g><g transform-origin="185.41065369616138 480" transform=" translate(114,-180) rotate(300)"><polygon points="156.8318153712749,414" style="fill:rgb(171, 37, 103);stroke:rgb(0, 0, 0);stroke-width:0"/><polygon points="213.98949202104785,414" style="fill:rgb(171, 37, 103);stroke:rgb(0, 0, 0);stroke-width:0"/><polygon points="156.8318153712749,430.5 156.8318153712749,397.5 185.41065369616138,381 213.98949202104785,397.5 213.98949202104785,430.5 185.41065369616138,414" style="fill:rgb(171, 37, 103);stroke:rgb(0, 0, 0);stroke-width:0"/><polygon points="213.98949202104785,430.5 213.98949202104785,397.5 185.41065369616138,381 156.8318153712749,397.5 156.8318153712749,430.5 185.41065369616138,414" style="fill:rgb(171, 37, 103);stroke:rgb(0, 0, 0);stroke-width:0"/></g></g><g layerId="3"><g transform-origin="185.41065369616138 480" transform=" translate(114,-180) rotate(0)"><polygon points="128.25297704638842,348 128.25297704638842,381 156.8318153712749,397.5 185.41065369616138,381" style="fill:rgb(171, 37, 103);stroke:rgb(0, 0, 0);stroke-width:0"/><polygon points="242.56833034593433,348 242.56833034593433,381 213.98949202104785,397.5 185.41065369616138,381" style="fill:rgb(171, 37, 103);stroke:rgb(0, 0, 0);stroke-width:0"/></g><g transform-origin="185.41065369616138 480" transform=" translate(114,-180) rotate(60)"><polygon points="128.25297704638842,348 128.25297704638842,381 156.8318153712749,397.5 185.41065369616138,381" style="fill:rgb(171, 37, 103);stroke:rgb(0, 0, 0);stroke-width:0"/><polygon points="242.56833034593433,348 242.56833034593433,381 213.98949202104785,397.5 185.41065369616138,381" style="fill:rgb(171, 37, 103);stroke:rgb(0, 0, 0);stroke-width:0"/></g><g transform-origin="185.41065369616138 480" transform=" translate(114,-180) rotate(120)"><polygon points="128.25297704638842,348 128.25297704638842,381 156.8318153712749,397.5 185.41065369616138,381" style="fill:rgb(171, 37, 103);stroke:rgb(0, 0, 0);stroke-width:0"/><polygon points="242.56833034593433,348 242.56833034593433,381 213.98949202104785,397.5 185.41065369616138,381" style="fill:rgb(171, 37, 103);stroke:rgb(0, 0, 0);stroke-width:0"/></g><g transform-origin="185.41065369616138 480" transform=" translate(114,-180) rotate(180)"><polygon points="128.25297704638842,348 128.25297704638842,381 156.8318153712749,397.5 185.41065369616138,381" style="fill:rgb(171, 37, 103);stroke:rgb(0, 0, 0);stroke-width:0"/><polygon points="242.56833034593433,348 242.56833034593433,381 213.98949202104785,397.5 185.41065369616138,381" style="fill:rgb(171, 37, 103);stroke:rgb(0, 0, 0);stroke-width:0"/></g><g transform-origin="185.41065369616138 480" transform=" translate(114,-180) rotate(240)"><polygon points="128.25297704638842,348 128.25297704638842,381 156.8318153712749,397.5 185.41065369616138,381" style="fill:rgb(171, 37, 103);stroke:rgb(0, 0, 0);stroke-width:0"/><polygon points="242.56833034593433,348 242.56833034593433,381 213.98949202104785,397.5 185.41065369616138,381" style="fill:rgb(171, 37, 103);stroke:rgb(0, 0, 0);stroke-width:0"/></g><g transform-origin="185.41065369616138 480" transform=" translate(114,-180) rotate(300)"><polygon points="128.25297704638842,348 128.25297704638842,381 156.8318153712749,397.5 185.41065369616138,381" style="fill:rgb(171, 37, 103);stroke:rgb(0, 0, 0);stroke-width:0"/><polygon points="242.56833034593433,348 242.56833034593433,381 213.98949202104785,397.5 185.41065369616138,381" style="fill:rgb(171, 37, 103);stroke:rgb(0, 0, 0);stroke-width:0"/></g></g><g layerId="9"><g transform-origin="185.41065369616138 480" transform=" translate(114,-180) rotate(0)"><polygon points="150.76963754478382,360 150.76963754478382,340 168.0901456204726,330 173.86364831236887,310" style="fill:rgb(171, 37, 103);stroke:rgb(0, 0, 0);stroke-width:0"/><polygon points="220.05166984753893,360 220.05166984753893,340 202.73116177185014,330 196.95765907995388,310" style="fill:rgb(171, 37, 103);stroke:rgb(0, 0, 0);stroke-width:0"/></g><g transform-origin="185.41065369616138 480" transform=" translate(114,-180) rotate(60)"><polygon points="150.76963754478382,360 150.76963754478382,340 168.0901456204726,330 173.86364831236887,310" style="fill:rgb(171, 37, 103);stroke:rgb(0, 0, 0);stroke-width:0"/><polygon points="220.05166984753893,360 220.05166984753893,340 202.73116177185014,330 196.95765907995388,310" style="fill:rgb(171, 37, 103);stroke:rgb(0, 0, 0);stroke-width:0"/></g><g transform-origin="185.41065369616138 480" transform=" translate(114,-180) rotate(120)"><polygon points="150.76963754478382,360 150.76963754478382,340 168.0901456204726,330 173.86364831236887,310" style="fill:rgb(171, 37, 103);stroke:rgb(0, 0, 0);stroke-width:0"/><polygon points="220.05166984753893,360 220.05166984753893,340 202.73116177185014,330 196.95765907995388,310" style="fill:rgb(171, 37, 103);stroke:rgb(0, 0, 0);stroke-width:0"/></g><g transform-origin="185.41065369616138 480" transform=" translate(114,-180) rotate(180)"><polygon points="150.76963754478382,360 150.76963754478382,340 168.0901456204726,330 173.86364831236887,310" style="fill:rgb(171, 37, 103);stroke:rgb(0, 0, 0);stroke-width:0"/><polygon points="220.05166984753893,360 220.05166984753893,340 202.73116177185014,330 196.95765907995388,310" style="fill:rgb(171, 37, 103);stroke:rgb(0, 0, 0);stroke-width:0"/></g><g transform-origin="185.41065369616138 480" transform=" translate(114,-180) rotate(240)"><polygon points="150.76963754478382,360 150.76963754478382,340 168.0901456204726,330 173.86364831236887,310" style="fill:rgb(171, 37, 103);stroke:rgb(0, 0, 0);stroke-width:0"/><polygon points="220.05166984753893,360 220.05166984753893,340 202.73116177185014,330 196.95765907995388,310" style="fill:rgb(171, 37, 103);stroke:rgb(0, 0, 0);stroke-width:0"/></g><g transform-origin="185.41065369616138 480" transform=" translate(114,-180) rotate(300)"><polygon points="150.76963754478382,360 150.76963754478382,340 168.0901456204726,330 173.86364831236887,310" style="fill:rgb(171, 37, 103);stroke:rgb(0, 0, 0);stroke-width:0"/><polygon points="220.05166984753893,360 220.05166984753893,340 202.73116177185014,330 196.95765907995388,310" style="fill:rgb(171, 37, 103);stroke:rgb(0, 0, 0);stroke-width:0"/></g></g><g layerId="10"><g transform-origin="185.41065369616138 480" transform=" translate(114,-180) rotate(0)"><polygon points="133.44912946909506,310 133.44912946909506,290 150.76963754478382,280 150.76963754478382,260 173.86364831236887,250" style="fill:rgb(171, 37, 103);stroke:rgb(0, 0, 0);stroke-width:0"/><polygon points="237.3721779232277,310 237.3721779232277,290 220.05166984753893,280 220.05166984753893,260 196.95765907995388,250" style="fill:rgb(171, 37, 103);stroke:rgb(0, 0, 0);stroke-width:0"/></g><g transform-origin="185.41065369616138 480" transform=" translate(114,-180) rotate(60)"><polygon points="133.44912946909506,310 133.44912946909506,290 150.76963754478382,280 150.76963754478382,260 173.86364831236887,250" style="fill:rgb(171, 37, 103);stroke:rgb(0, 0, 0);stroke-width:0"/><polygon points="237.3721779232277,310 237.3721779232277,290 220.05166984753893,280 220.05166984753893,260 196.95765907995388,250" style="fill:rgb(171, 37, 103);stroke:rgb(0, 0, 0);stroke-width:0"/></g><g transform-origin="185.41065369616138 480" transform=" translate(114,-180) rotate(120)"><polygon points="133.44912946909506,310 133.44912946909506,290 150.76963754478382,280 150.76963754478382,260 173.86364831236887,250" style="fill:rgb(171, 37, 103);stroke:rgb(0, 0, 0);stroke-width:0"/><polygon points="237.3721779232277,310 237.3721779232277,290 220.05166984753893,280 220.05166984753893,260 196.95765907995388,250" style="fill:rgb(171, 37, 103);stroke:rgb(0, 0, 0);stroke-width:0"/></g><g transform-origin="185.41065369616138 480" transform=" translate(114,-180) rotate(180)"><polygon points="133.44912946909506,310 133.44912946909506,290 150.76963754478382,280 150.76963754478382,260 173.86364831236887,250" style="fill:rgb(171, 37, 103);stroke:rgb(0, 0, 0);stroke-width:0"/><polygon points="237.3721779232277,310 237.3721779232277,290 220.05166984753893,280 220.05166984753893,260 196.95765907995388,250" style="fill:rgb(171, 37, 103);stroke:rgb(0, 0, 0);stroke-width:0"/></g><g transform-origin="185.41065369616138 480" transform=" translate(114,-180) rotate(240)"><polygon points="133.44912946909506,310 133.44912946909506,290 150.76963754478382,280 150.76963754478382,260 173.86364831236887,250" style="fill:rgb(171, 37, 103);stroke:rgb(0, 0, 0);stroke-width:0"/><polygon points="237.3721779232277,310 237.3721779232277,290 220.05166984753893,280 220.05166984753893,260 196.95765907995388,250" style="fill:rgb(171, 37, 103);stroke:rgb(0, 0, 0);stroke-width:0"/></g><g transform-origin="185.41065369616138 480" transform=" translate(114,-180) rotate(300)"><polygon points="133.44912946909506,310 133.44912946909506,290 150.76963754478382,280 150.76963754478382,260 173.86364831236887,250" style="fill:rgb(171, 37, 103);stroke:rgb(0, 0, 0);stroke-width:0"/><polygon points="237.3721779232277,310 237.3721779232277,290 220.05166984753893,280 220.05166984753893,260 196.95765907995388,250" style="fill:rgb(171, 37, 103);stroke:rgb(0, 0, 0);stroke-width:0"/></g></g><g layerId="13"><g transform-origin="185.41065369616138 480" transform=" translate(114,-180) rotate(0)"><circle fill="rgb(171, 37, 103)" stroke="rgb(0, 0, 0)" stroke-width="0" cx="87.26110793392496" cy="270" r="3"/><circle fill="rgb(171, 37, 103)" stroke="rgb(0, 0, 0)" stroke-width="0" cx="283.5601994583978" cy="270" r="3"/><circle fill="rgb(171, 37, 103)" stroke="rgb(0, 0, 0)" stroke-width="0" cx="64.16709716633994" cy="260" r="3"/><circle fill="rgb(171, 37, 103)" stroke="rgb(0, 0, 0)" stroke-width="0" cx="306.6542102259828" cy="260" r="3"/><circle fill="rgb(171, 37, 103)" stroke="rgb(0, 0, 0)" stroke-width="0" cx="52.62009178254743" cy="230" r="3"/><circle fill="rgb(171, 37, 103)" stroke="rgb(0, 0, 0)" stroke-width="0" cx="318.2012156097753" cy="230" r="3"/></g><g transform-origin="185.41065369616138 480" transform=" translate(114,-180) rotate(60)"><circle fill="rgb(171, 37, 103)" stroke="rgb(0, 0, 0)" stroke-width="0" cx="87.26110793392496" cy="270" r="3"/><circle fill="rgb(171, 37, 103)" stroke="rgb(0, 0, 0)" stroke-width="0" cx="283.5601994583978" cy="270" r="3"/><circle fill="rgb(171, 37, 103)" stroke="rgb(0, 0, 0)" stroke-width="0" cx="64.16709716633994" cy="260" r="3"/><circle fill="rgb(171, 37, 103)" stroke="rgb(0, 0, 0)" stroke-width="0" cx="306.6542102259828" cy="260" r="3"/><circle fill="rgb(171, 37, 103)" stroke="rgb(0, 0, 0)" stroke-width="0" cx="52.62009178254743" cy="230" r="3"/><circle fill="rgb(171, 37, 103)" stroke="rgb(0, 0, 0)" stroke-width="0" cx="318.2012156097753" cy="230" r="3"/></g><g transform-origin="185.41065369616138 480" transform=" translate(114,-180) rotate(120)"><circle fill="rgb(171, 37, 103)" stroke="rgb(0, 0, 0)" stroke-width="0" cx="87.26110793392496" cy="270" r="3"/><circle fill="rgb(171, 37, 103)" stroke="rgb(0, 0, 0)" stroke-width="0" cx="283.5601994583978" cy="270" r="3"/><circle fill="rgb(171, 37, 103)" stroke="rgb(0, 0, 0)" stroke-width="0" cx="64.16709716633994" cy="260" r="3"/><circle fill="rgb(171, 37, 103)" stroke="rgb(0, 0, 0)" stroke-width="0" cx="306.6542102259828" cy="260" r="3"/><circle fill="rgb(171, 37, 103)" stroke="rgb(0, 0, 0)" stroke-width="0" cx="52.62009178254743" cy="230" r="3"/><circle fill="rgb(171, 37, 103)" stroke="rgb(0, 0, 0)" stroke-width="0" cx="318.2012156097753" cy="230" r="3"/></g><g transform-origin="185.41065369616138 480" transform=" translate(114,-180) rotate(180)"><circle fill="rgb(171, 37, 103)" stroke="rgb(0, 0, 0)" stroke-width="0" cx="87.26110793392496" cy="270" r="3"/><circle fill="rgb(171, 37, 103)" stroke="rgb(0, 0, 0)" stroke-width="0" cx="283.5601994583978" cy="270" r="3"/><circle fill="rgb(171, 37, 103)" stroke="rgb(0, 0, 0)" stroke-width="0" cx="64.16709716633994" cy="260" r="3"/><circle fill="rgb(171, 37, 103)" stroke="rgb(0, 0, 0)" stroke-width="0" cx="306.6542102259828" cy="260" r="3"/><circle fill="rgb(171, 37, 103)" stroke="rgb(0, 0, 0)" stroke-width="0" cx="52.62009178254743" cy="230" r="3"/><circle fill="rgb(171, 37, 103)" stroke="rgb(0, 0, 0)" stroke-width="0" cx="318.2012156097753" cy="230" r="3"/></g><g transform-origin="185.41065369616138 480" transform=" translate(114,-180) rotate(240)"><circle fill="rgb(171, 37, 103)" stroke="rgb(0, 0, 0)" stroke-width="0" cx="87.26110793392496" cy="270" r="3"/><circle fill="rgb(171, 37, 103)" stroke="rgb(0, 0, 0)" stroke-width="0" cx="283.5601994583978" cy="270" r="3"/><circle fill="rgb(171, 37, 103)" stroke="rgb(0, 0, 0)" stroke-width="0" cx="64.16709716633994" cy="260" r="3"/><circle fill="rgb(171, 37, 103)" stroke="rgb(0, 0, 0)" stroke-width="0" cx="306.6542102259828" cy="260" r="3"/><circle fill="rgb(171, 37, 103)" stroke="rgb(0, 0, 0)" stroke-width="0" cx="52.62009178254743" cy="230" r="3"/><circle fill="rgb(171, 37, 103)" stroke="rgb(0, 0, 0)" stroke-width="0" cx="318.2012156097753" cy="230" r="3"/></g><g transform-origin="185.41065369616138 480" transform=" translate(114,-180) rotate(300)"><circle fill="rgb(171, 37, 103)" stroke="rgb(0, 0, 0)" stroke-width="0" cx="87.26110793392496" cy="270" r="3"/><circle fill="rgb(171, 37, 103)" stroke="rgb(0, 0, 0)" stroke-width="0" cx="283.5601994583978" cy="270" r="3"/><circle fill="rgb(171, 37, 103)" stroke="rgb(0, 0, 0)" stroke-width="0" cx="64.16709716633994" cy="260" r="3"/><circle fill="rgb(171, 37, 103)" stroke="rgb(0, 0, 0)" stroke-width="0" cx="306.6542102259828" cy="260" r="3"/><circle fill="rgb(171, 37, 103)" stroke="rgb(0, 0, 0)" stroke-width="0" cx="52.62009178254743" cy="230" r="3"/><circle fill="rgb(171, 37, 103)" stroke="rgb(0, 0, 0)" stroke-width="0" cx="318.2012156097753" cy="230" r="3"/></g></g></svg>